<svg xmlns="http://www.w3.org/2000/svg" data-name="Layer 1" viewBox="0 0 64 64" x="0px" y="0px"><title>consequence-effect-outcome-achievement-accomplish</title><path d="M50.041,7.7168,49.07227,11H46a1,1,0,0,0-.57666,1.81689l2.49707,1.76172-.96631,3.126a.99986.99986,0,0,0,1.5625,1.08984L51,16.89746l2.4834,1.897a.99986.99986,0,0,0,1.5625-1.08984l-.96631-3.126,2.49707-1.76172A1,1,0,0,0,56,11H52.92773L51.959,7.7168a.99989.99989,0,0,0-1.918,0ZM52.18018,13h.66748l-.51465.36328a1,1,0,0,0-.37891,1.11231l.25684.83007-.604-.46093a.99874.99874,0,0,0-1.21386,0l-.604.46093.25684-.83007a1,1,0,0,0-.37891-1.11231L49.15234,13h.66748a1.00006,1.00006,0,0,0,.959-.7168L51,11.53369l.22119.74951A1.00006,1.00006,0,0,0,52.18018,13Z"></path><path d="M60.87305,17.855a10.89955,10.89955,0,0,0,1.10937-4.22754l-1.99707-.1123a8.9129,8.9129,0,0,1-.90625,3.456Z"></path><path d="M43.3335,5.11182,44.728,6.54541a8.95035,8.95035,0,0,1,3.00635-1.93506l-.72657-1.86328A10.93746,10.93746,0,0,0,43.3335,5.11182Z"></path><path d="M42.707,9.49658l-1.8418-.77929A10.92919,10.92919,0,0,0,40,13h2A8.94023,8.94023,0,0,1,42.707,9.49658Z"></path><path d="M42.36133,15.53564l-1.919.5625a10.9269,10.9269,0,0,0,2.04151,3.86475l1.54785-1.2666A8.93793,8.93793,0,0,1,42.36133,15.53564Z"></path><path d="M53.78125,21.5625l.61816,1.90234a10.937,10.937,0,0,0,3.8042-2.15136l-1.31054-1.51075A8.93969,8.93969,0,0,1,53.78125,21.5625Z"></path><path d="M55.5708,2.9917a10.91718,10.91718,0,0,0-4.25732-.98731l-.05567,1.999a8.931,8.931,0,0,1,3.48194.80762Z"></path><path d="M57.63135,6.91455A8.94237,8.94237,0,0,1,59.479,9.97461l1.88379-.67188A10.926,10.926,0,0,0,59.104,5.562Z"></path><path d="M50.22852,21.96729a8.89232,8.89232,0,0,1-3.42823-1.00489L45.86475,22.73a10.88836,10.88836,0,0,0,4.19482,1.23047Z"></path><path d="M2.68555,46.95605l3.481,1.15284.73633,1.77343-1.47217,3.1001A1.001,1.001,0,0,0,5.519,53.99121a19.02558,19.02558,0,0,0,4.48975,4.48926,1.002,1.002,0,0,0,1.00879.08838l3.09961-1.47217,1.77392.73633L17.044,61.31445A.99969.99969,0,0,0,17.99316,62h6.01368a.99969.99969,0,0,0,.94921-.68555l1.13721-3.43457a15.6979,15.6979,0,0,0,1.8335-.7622l3.05615,1.45117a.99567.99567,0,0,0,1.0083-.08838,19.02352,19.02352,0,0,0,4.48926-4.48926,1.00024,1.00024,0,0,0,.08838-1.0083l-1.45117-3.05664a15.72608,15.72608,0,0,0,.7622-1.833l3.43457-1.13721A.99969.99969,0,0,0,40,46.00684V39.99316a.99969.99969,0,0,0-.68555-.94921l-3.43457-1.13721a15.73313,15.73313,0,0,0-.7622-1.8335l1.45166-3.05566a1.001,1.001,0,0,0-.08838-1.00879A19.04594,19.04594,0,0,0,31.99121,27.519a.99668.99668,0,0,0-1.00879-.08838l-3.05615,1.45166a15.65579,15.65579,0,0,0-1.833-.7622l-1.13721-3.43457A.99969.99969,0,0,0,24.00684,24H17.99316a.99969.99969,0,0,0-.94921.68555l-1.15284,3.481-1.77343.73633-3.1001-1.47217a1.00239,1.00239,0,0,0-1.00879.08838A19.02352,19.02352,0,0,0,5.51953,32.0083a1.00024,1.00024,0,0,0-.08838,1.0083l1.47168,3.10059L6.1665,37.89111,2.68555,39.044A.99969.99969,0,0,0,2,39.99316v6.01368A.99969.99969,0,0,0,2.68555,46.95605ZM4,40.71533,7.22949,39.646a1.00118,1.00118,0,0,0,.60938-.56592l1.082-2.60694a.99911.99911,0,0,0-.02051-.812L7.49414,32.69922a17.03126,17.03126,0,0,1,3.20557-3.20508l2.96142,1.40625a.99839.99839,0,0,0,.8125.02l2.60645-1.082a.9991.9991,0,0,0,.56592-.60889L18.71533,26h4.56934L24.354,29.22949a1.00023,1.00023,0,0,0,.65723.64209,13.68823,13.68823,0,0,1,2.4292,1.0083,1.00435,1.00435,0,0,0,.89893.02051l2.96093-1.40625a17.00466,17.00466,0,0,1,3.20557,3.20557l-1.40625,2.96093a.99982.99982,0,0,0,.02051.89893,13.68243,13.68243,0,0,1,1.0083,2.4292,1.00021,1.00021,0,0,0,.64209.65723L38,40.71533v4.56934L34.77051,46.354a1.00023,1.00023,0,0,0-.64209.65723,13.71365,13.71365,0,0,1-1.0083,2.42871,1.00037,1.00037,0,0,0-.02051.89844l1.40625,2.96191a17.03357,17.03357,0,0,1-3.20557,3.20557l-2.96142-1.40625a.99723.99723,0,0,0-.89844.02051,13.68823,13.68823,0,0,1-2.4292,1.0083,1.00023,1.00023,0,0,0-.65723.64209L23.28467,60H18.71533L17.646,56.77051a1.00036,1.00036,0,0,0-.56592-.60889L14.47314,55.0791a.99839.99839,0,0,0-.8125.02l-2.96093,1.40625a16.98765,16.98765,0,0,1-3.20557-3.20508l1.40625-2.96142a.99834.99834,0,0,0,.02-.8125l-1.082-2.60645a.9991.9991,0,0,0-.60889-.56592L4,45.28467Z"></path><path d="M21,55A12,12,0,1,0,9,43,12.01375,12.01375,0,0,0,21,55Zm5-3.353a9.91542,9.91542,0,0,1-10,0V46.37988A2.38145,2.38145,0,0,1,18.37988,44a1.00029,1.00029,0,0,0,.65625-1.75488,2.99878,2.99878,0,1,1,3.92432.00342A.99982.99982,0,0,0,23.62012,44,2.38228,2.38228,0,0,1,26,46.37988ZM21,33a9.99157,9.99157,0,0,1,7,17.12946V46.37988A4.38593,4.38593,0,0,0,25.39307,42.375a5.002,5.002,0,1,0-8.78418-.00342A4.39118,4.39118,0,0,0,14,46.37988v3.74958A9.99157,9.99157,0,0,1,21,33Z"></path><rect x="20" y="46" width="2" height="3"></rect><rect x="2" y="20" width="2" height="2"></rect><rect x="2" y="24" width="2" height="2"></rect><rect x="2" y="28" width="2" height="2"></rect><rect x="2" y="16" width="2" height="2"></rect><path d="M37,2a3,3,0,1,0,3,3A3.00328,3.00328,0,0,0,37,2Zm0,4a1,1,0,1,1,1-1A1.0013,1.0013,0,0,1,37,6Z"></path><rect x="18" y="4" width="2" height="2"></rect><rect x="22" y="4" width="2" height="2"></rect><rect x="26" y="4" width="2" height="2"></rect><rect x="2" y="12" width="2" height="2"></rect><rect x="2" y="8" width="2" height="2"></rect><rect x="14" y="4" width="2" height="2"></rect><rect x="10" y="4" width="2" height="2"></rect><rect x="6" y="4" width="2" height="2"></rect><rect x="2" y="4" width="2" height="2"></rect><rect x="30" y="4" width="2" height="2"></rect><rect x="42" y="60" width="2" height="2"></rect><rect x="38" y="60" width="2" height="2"></rect><rect x="34" y="60" width="2" height="2"></rect><rect x="46" y="60" width="2" height="2"></rect><path d="M59,24a3,3,0,1,0,3,3A3.00328,3.00328,0,0,0,59,24Zm0,4a1,1,0,1,1,1-1A1.0013,1.0013,0,0,1,59,28Z"></path><rect x="58" y="44" width="2" height="2"></rect><rect x="58" y="40" width="2" height="2"></rect><rect x="58" y="36" width="2" height="2"></rect><rect x="50" y="60" width="2" height="2"></rect><rect x="54" y="60" width="2" height="2"></rect><rect x="58" y="48" width="2" height="2"></rect><rect x="58" y="52" width="2" height="2"></rect><rect x="58" y="56" width="2" height="2"></rect><rect x="58" y="60" width="2" height="2"></rect><rect x="58" y="32" width="2" height="2"></rect></svg>
