<svg height='100px' width='100px'  fill="#00bfb3" xmlns="http://www.w3.org/2000/svg" xmlns:xlink="http://www.w3.org/1999/xlink" version="1.1" x="0px" y="0px" viewBox="0 0 66 66" enable-background="new 0 0 66 66" xml:space="preserve"><path d="M64.1,3.7L38.3,1.9c-0.9-0.1-1.4,1-0.8,1.7l6.2,7L31.8,21.1l-1.4-1.5c-1.9-2.1-5.8-1.1-6.6,1.7c-2.8-1.1-5.7,1.1-5.4,3.9  c-2.4,0.1-4.3,2.2-3.9,4.4c-2,0.3-3.7,2.1-3.8,3.8c0,0.7,0.2,1.4,0.7,1.9l2,2.1L1.3,47.7c-0.4,0.4-0.5,1-0.1,1.4L11.6,61  c0.4,0.4,1,0.5,1.4,0.1l7.7-7.2l1.2,1.9v7.3c0,0.6,0.4,1,1,1h14.4c0.6,0,1-0.4,1-1l0-17l5.2-6.6c0.1-0.2,0.2-0.4,0.2-0.6v-4.7  L55.4,24l6.2,7c0.6,0.7,1.7,0.3,1.8-0.6L65,4.7C65,4.2,64.6,3.7,64.1,3.7z M28.9,20.9l5.7,6.2c0.6,0.6,0.3,1.6-0.4,2.2  c-0.8,0.6-2,0.6-2.6,0c-0.2-0.2-6.3-6.9-5.9-6.5C24.9,21.2,27.7,19.5,28.9,20.9z M23.8,23.6c0.1,0.1,6.7,7.4,6.3,7  c0.6,0.7,0.4,1.7-0.3,2.3c-0.8,0.6-2.1,0.6-2.8-0.2c-2.3-2.6-4.1-4.4-6.3-6.9C19.2,24,22.2,21.8,23.8,23.6z M19.7,27.5  c0.1,0.1,6,6.6,5.6,6.2c1,1.5-1.8,3.4-3.1,2.1c-0.3-0.3-5.6-6.1-5.5-6C15.4,28.3,18.4,26.1,19.7,27.5z M15.7,31.6  c0.1,0.1,5,5.3,4.6,5c0.5,1.2-2.2,2.9-3,2.1l-4.6-4.9C11.9,32.9,14.8,30.6,15.7,31.6z M12.4,58.9l-9-10.3l11.2-9.8l1.2,1.3  c1.7,1.8,5.4,0.5,6.3-2.1c2.2,0.7,4.7-0.6,5.2-2.9c1.4,0.4,2.7,0.1,3.6-0.7c0,0,0,0,0,0c0.8-0.6,1.3-1.5,1.4-2.7  c1.2,0.1,2.2-0.2,3.1-0.9v0c0.1-0.1,0.1-0.1,0.2-0.2v5.7L31.1,38c-0.2,0.1-0.4,0.2-0.5,0.4l-3.2,4.5c-0.2,0.3-0.2,0.7-0.1,1l0.4,0.8  L12.4,58.9z M41.8,38.5l-5.2,6.6c-0.1,0.2-0.2,0.4-0.2,0.6l0,16.3H24v-6.5c0-0.2-0.1-0.4-0.1-0.5l-1.5-2.5l6.2-5.8l0.3,0.8  c0.2,0.5,0.8,0.7,1.3,0.5c0.5-0.2,0.7-0.8,0.5-1.3l-1.3-3l2.7-3.8l5-1.8c0.4-0.1,0.7-0.5,0.7-0.9v-7c0-2.5,1.8-4.5,4.1-5V38.5z   M61.5,27.9l-5.2-6c-0.4-0.4-1-0.5-1.4-0.1l-11,9.6V24c0-0.6-0.4-1-1-1c-2.6,0-4.9,1.5-6.2,3.6c-0.1-0.3-0.3-0.6-0.5-0.8l-2.9-3.2  l12.6-11c0.4-0.4,0.5-1,0.1-1.4l-5.2-6l22.3,1.5L61.5,27.9z"></path></svg>