<svg height='100px' width='100px'  fill="#00bfb3" xmlns="http://www.w3.org/2000/svg" data-name="Layer 1" viewBox="0 0 128 128" x="0px" y="0px"><title>expandlines</title><path d="M64,16C43.04688,16,26,32.82227,26,53.5a37.19777,37.19777,0,0,0,9.27063,24.54541c1.2254,1.39563,2.59583,2.66718,3.75134,4.12451a54.82453,54.82453,0,0,1,7.19531,12.11816A43.07,43.07,0,0,1,49.252,104.76563,6.09423,6.09423,0,0,0,55.28809,110H72.71191a6.09423,6.09423,0,0,0,6.03613-5.23437,42.99924,42.99924,0,0,1,2.96631-10.31738,58.852,58.852,0,0,1,5.65045-10.44641,36.87239,36.87239,0,0,1,4.06927-4.55359A37.06925,37.06925,0,0,0,102,53.5C102,32.82227,84.95313,16,64,16ZM88.56494,76.66113a39.628,39.628,0,0,0-4.48877,5.06348,62.907,62.907,0,0,0-6.04346,11.15918,46.98082,46.98082,0,0,0-3.23877,11.28027A2.14454,2.14454,0,0,1,72.71191,106H70v-6a2,2,0,0,0-4,0v6H61.9502V67.73145c0-1.292.0376-1.89844.39746-2.28125a6.55454,6.55454,0,0,1,4.15186-1.86035c.03857-.00488.07666-.01074.11475-.01758l.85645-.15137a9.16943,9.16943,0,0,0,5.36279,1.21484A8.64059,8.64059,0,0,0,77.89355,62.999a11.836,11.836,0,0,0,5.91895-.05371,12.55267,12.55267,0,0,0,3.1709-22.81543A8.83829,8.83829,0,0,0,78.353,32.86621q-.42261,0-.84082.041A8.76722,8.76722,0,0,0,70.48389,28.549a2.0101,2.0101,0,0,0-.40479-.0412c-.03912,0-.0769.00543-.13184.00488-.04114,0-.0813.00757-.12238.00818-.22583.0072-.45026.01929-.67108.045a8.65041,8.65041,0,0,0-3.5835,1.13916,8.665,8.665,0,0,0-11.72754,1.30566,8.62421,8.62421,0,0,0-1.81006-.19141,8.78357,8.78357,0,0,0-8.31348,6.03809,8.99348,8.99348,0,0,0-5.96484,11.0498,9.04111,9.04111,0,0,0-.32422,12.665c.01172.06738.02686.1377.0459.209,2.19336,8.30664,8.625,9.374,8.89795,9.416a1.98578,1.98578,0,0,0,2.25928-1.65332A2.01274,2.01274,0,0,0,46.999,66.24609c-.166-.0293-4.03027-.78223-5.583-6.22168.00586-.04883.01123-.09766.01465-.14648a1.9992,1.9992,0,0,0-.69385-1.6709,5.03075,5.03075,0,0,1,.00085-7.60559c.04712-.03485.09747-.06281.14221-.10242a3.9884,3.9884,0,0,1,5.72363.42676,1.99976,1.99976,0,1,0,3.05273-2.584,7.957,7.957,0,0,0-8.22693-2.56635c-.00775-.11444-.01965-.22815-.01965-.34381a4.89392,4.89392,0,0,1,4.19385-4.89844,1.99929,1.99929,0,0,0,1.71631-1.64355,4.82488,4.82488,0,0,1,4.31781-4.03412c.03925.00232.07648.01166.1402.01166a4.14867,4.14867,0,0,1,3.87988,2.76367,4.313,4.313,0,0,1,.24658,1.39941,2.00014,2.00014,0,0,0,4-.04687,8.3,8.3,0,0,0-.47754-2.69141,8.1864,8.1864,0,0,0-2.03937-3.1629A4.65348,4.65348,0,0,1,60.418,32a4.60678,4.60678,0,0,1,2.56708.7951A8.26749,8.26749,0,0,0,62,36.7207a2,2,0,1,0,4,0,4.15051,4.15051,0,0,1,3.99512-4.2041,4.80858,4.80858,0,0,1,4.46826,3.30078,2.00118,2.00118,0,0,0,2.49219,1.2627,4.66656,4.66656,0,0,1,1.39746-.21387,4.822,4.822,0,0,1,4.63684,3.72845c-.00909.03467-.02454.0661-.03186.10162A4.13947,4.13947,0,0,1,79.48486,43.998a1.99956,1.99956,0,1,0,.52246,3.96484,8.05692,8.05692,0,0,0,5.77789-3.77441,8.59286,8.59286,0,0,1,3.142,7.81934,8.42928,8.42928,0,0,1-6.12988,7.06836,7.93948,7.93948,0,0,1-4.69678-.18457,1.99911,1.99911,0,0,0-2.03125.4375,4.69693,4.69693,0,0,1-3.23584,1.30664c-.07593,0-.142-.00165-.215-.00208a8.3116,8.3116,0,0,0,1.72571-7.43445,2.00023,2.00023,0,1,0-3.877.98633,4.2276,4.2276,0,0,1-2.9292,5.15039c-.01868.00494-.03467.01453-.053.02l-1.51532.269a10.4385,10.4385,0,0,0-6.53711,3.08594c-1.48242,1.57715-1.48242,3.48633-1.48242,5.02734V106H55.28809a2.14454,2.14454,0,0,1-2.082-1.83594,47.06834,47.06834,0,0,0-3.313-11.4541,58.1307,58.1307,0,0,0-7.73633-13.02448c-1.19843-1.51263-2.60895-2.83063-3.87988-4.27826A33.20212,33.20212,0,0,1,30,53.5C30,35.02832,45.25244,20,64,20S98,35.02832,98,53.5A33.08885,33.08885,0,0,1,88.56494,76.66113Z"></path><path d="M64,12a2.0001,2.0001,0,0,0,2-2V2a2,2,0,0,0-4,0v8A2.0001,2.0001,0,0,0,64,12Z"></path><path d="M45.31445,14.11523A2,2,0,0,0,49.00977,12.584l-3.06152-7.3916a2,2,0,0,0-3.69531,1.53125Z"></path><path d="M30.94043,23.77954a3.36642,3.36642,0,0,0,1.94806,1.06226,1.46479,1.46479,0,0,0,.67651-.11017A2.00042,2.00042,0,0,0,34.8006,22.39a3.86723,3.86723,0,0,0-1.09845-1.5332q-2.2793-2.2728-4.55865-4.54559a3.92056,3.92056,0,0,0-1.20947-.9256,1.952,1.952,0,0,0-2.55469,2.53424,3.9225,3.9225,0,0,0,.94415,1.23883Q28.632,21.46912,30.94043,23.77954Z"></path><path d="M24.11475,35.31445l-7.39062-3.06152a2,2,0,0,0-1.53125,3.69531s7.37805,3.05634,7.39063,3.06152a2.03167,2.03167,0,0,0,2.61328-1.082A1.99991,1.99991,0,0,0,24.11475,35.31445Z"></path><path d="M20,52H12a2,2,0,0,0,0,4h8a2,2,0,0,0,0-4Z"></path><path d="M116,52h-8a2,2,0,0,0,0,4h8a2,2,0,0,0,0-4Z"></path><path d="M113.88916,33.335a1.99988,1.99988,0,0,0-2.61328-1.082l-7.39062,3.06152a2,2,0,1,0,1.53125,3.69531l7.39063-3.06152A1.99991,1.99991,0,0,0,113.88916,33.335Z"></path><path d="M102.18359,15.81641a1.99927,1.99927,0,0,0-2.82813,0l-5.65674,5.65723a1.99979,1.99979,0,1,0,2.82813,2.82813l5.65674-5.65723A1.99927,1.99927,0,0,0,102.18359,15.81641Z"></path><path d="M80.07275,15.19727a1.99627,1.99627,0,0,0,2.61279-1.082l3.06152-7.3916a2,2,0,0,0-3.69531-1.53125L78.99023,12.584A2.00014,2.00014,0,0,0,80.07275,15.19727Z"></path><path d="M74,112H54a2,2,0,0,0,0,4H74a2,2,0,0,0,0-4Z"></path><path d="M72,118H56a2,2,0,0,0,0,4H72a2,2,0,0,0,0-4Z"></path><path d="M68,124H60a2,2,0,0,0,0,4h8a2,2,0,0,0,0-4Z"></path></svg>