<svg height='100px' width='100px'  fill="#00bfb3" xmlns="http://www.w3.org/2000/svg" xmlns:xlink="http://www.w3.org/1999/xlink" version="1.1" x="0px" y="0px" viewBox="0 0 100 100" style="enable-background:new 0 0 100 100;" xml:space="preserve"><path d="M95.1489258,85.6191406h-3.9755859V77.519043c0-16.7321777-10.232666-31.8562012-25.6268921-38.1367188  c0.8419189-2.1001587,1.3041382-4.3780518,1.3041382-6.7382812c0-2.5776367-1.3053589-4.906189-3.3637695-6.2750854V15.9086914  c0-1.5585938-1.1088867-2.8911133-2.6381836-3.1689453c-1.8427734-0.3339844-3.2563477-0.3339844-5.1000977,0  c-0.1104126,0.0200806-0.2133179,0.0570679-0.3190918,0.0878296c-0.4715576-0.6083374-1.1530762-1.0502319-1.9567871-1.196228  c-1.8427734-0.3339844-3.2558594-0.3339844-5.1005859,0c-0.8001709,0.1454468-1.4796753,0.5843506-1.9509277,1.1890869  c-0.0975952-0.0274658-0.1917725-0.0622559-0.2932129-0.0806885c-1.8422852-0.3339844-3.2563477-0.3339844-5.1005859,0  c-1.4630737,0.2659912-2.5309448,1.5014038-2.6204224,2.9735107c-1.5543213-0.2559814-2.8557129-0.2434692-4.4630737,0.0645752  c-1.4790039,0.2822266-2.5522461,1.6142578-2.5522461,3.1665039v7.7460938c0,0.0007935,0.0002441,0.0014648,0.0002441,0.0022583  c0,0.0007324-0.0002441,0.0014038-0.0002441,0.0021362v5.9492188c0,2.5977783,0.5612183,5.1046753,1.581665,7.3828125  C18.2700806,46.7061768,8.8266602,61.300354,8.8266602,77.519043v8.1000977H4.8510742c-0.8286133,0-1.5,0.6713867-1.5,1.5  s0.6713867,1.5,1.5,1.5h90.2978516c0.8286133,0,1.5-0.6713867,1.5-1.5S95.9775391,85.6191406,95.1489258,85.6191406z   M88.1733398,77.519043v8.1000977h-3.6401367V77.519043c0-14.5441284-8.916626-27.2921143-22.3834229-32.3291626  c0.1567383-0.4229736,0.3569946-0.7611694,0.6114502-1.1015015c0.00354-0.0046997,0.0054321-0.0100098,0.0089111-0.0147705  c0.5192261-0.6333008,0.9938354-1.3005981,1.4215088-1.9991455C78.5864868,47.8425293,88.1733398,61.9259644,88.1733398,77.519043z   M65.883667,85.6191406l-2.3342285-20.4912109c3.0858154,3.3560791,4.80896,7.7233276,4.80896,12.3911133v8.1000977H65.883667z   M71.3583984,77.519043c0-6.6820679-3.0335083-12.835083-8.3243408-16.9157104L62.5098877,56.00177  c7.6010132,4.4241943,12.3909912,12.5901489,12.3909912,21.5172729v8.1000977h-3.5424805V77.519043z M77.9008789,77.519043  c0-10.7338867-6.1783447-20.4876709-15.8022461-25.1275024l-0.3769531-3.309021  c0.0005493-0.3063354,0.0064087-0.5755005,0.0129395-0.8413696c11.9387817,4.758667,19.798584,16.227417,19.798584,29.2778931  v8.1000977h-3.6323242V77.519043z M54.8486328,46.3930664c-0.7617188,0.3256836-1.1152344,1.2070312-0.7890625,1.96875  c0.2431641,0.5693359,0.7973633,0.9106445,1.3793945,0.9106445c0.1967773,0,0.3969727-0.0390625,0.5893555-0.121582  c0.9624634-0.4117432,1.8681641-0.9105225,2.7248535-1.4702759c-0.019165,0.4591064-0.0314941,0.9437866-0.0314941,1.4863892  c0,0.0566406,0.003418,0.1132812,0.0097656,0.1699219l0.4454956,3.9110718  c-0.0144653,0.1903687,0.0078735,0.3779297,0.0634155,0.5565796l3.6240845,31.8145752H37.9909058l2.3235474-35.9536133  c0.0019531-0.0322266,0.0029297-0.0839844,0.0029297-0.1162109c0-0.4259033-0.0021973-0.8908691-0.0233154-1.3753662  c0.541748,0.3148193,1.0963745,0.6122437,1.6766357,0.8709717c0.1982422,0.0883789,0.4057617,0.1303711,0.6098633,0.1303711  c0.5742188,0,1.1220703-0.331543,1.3710938-0.8896484c0.3374023-0.7568359-0.0024414-1.6435547-0.7592773-1.980957  c-5.3461914-2.3837891-8.8007812-7.7456055-8.8007812-13.6606445v-1.2050171  c0.6132812,0.2792358,1.2875977,0.4393921,1.9990234,0.4393921c1.262207,0,2.4033203-0.5040283,3.2840576-1.3078003  c0.9519653,1.0975952,2.3392944,1.807312,3.9029541,1.807312c2.0269165,0,3.767395-1.1794434,4.6206665-2.8779297  c0.994873,0.8842773,2.2854614,1.7140503,3.8900757,2.3862305c-2.3535156,1.3422852-4.6191406,3.7109375-5.7553711,7.6669922  c-0.2285156,0.7963867,0.2314453,1.6269531,1.027832,1.855957c0.7954102,0.2280273,1.6269531-0.2319336,1.855957-1.027832  c2.0820312-7.25,8.4399414-7.046875,8.7094727-7.0336914c0.7988281,0.0380859,1.5078125-0.5605469,1.578125-1.3681641  c0.0698242-0.8071289-0.5141602-1.5244141-1.3193359-1.6191406c-6.3803711-0.7519531-9.1943359-3.8774414-9.4150391-5.0209961  l11.6679688,2.9082031c2.0092773,0.5141602,3.4125977,2.3222656,3.4125977,4.3964844  C63.8505859,38.6567383,60.3168945,44.0532227,54.8486328,46.3930664z M18.4667969,77.519043  c0-12.6464844,7.3585205-23.8140869,18.8442383-28.8530273c0.0061646,0.2741699,0.0087891,0.5454102,0.0092773,0.8061523  l-0.2137451,3.3071289c-9.2611084,4.8330078-15.0074463,14.282959-15.0074463,24.7397461v8.1000977h-3.6323242V77.519043z   M25.0991211,77.519043c0-8.7064819,4.4658203-16.628418,11.7758789-21.1560669l-0.2950439,4.5646973  c-0.0563965,0.0350952-0.1137695,0.0679321-0.1663818,0.1113892c-4.9394531,4.0761719-7.7719727,10.0830078-7.7719727,16.4799805  v8.1000977h-3.5424805V77.519043z M31.6416016,77.519043c0-4.5513306,1.6724854-8.8699951,4.6553345-12.2113037  l-1.3126831,20.3114014h-3.3426514V77.519043z M56.2841797,15.6918945c1.4897461-0.2705078,2.5385742-0.2705078,4.0292969,0  c0.1020508,0.0185547,0.1733398,0.1074219,0.1733398,0.2167969v9.2592773l-4.3759766-1.0906982v-8.1685791  C56.1108398,15.7993164,56.1821289,15.7104492,56.2841797,15.6918945z M48.9072266,14.5834961  c1.4921875-0.2705078,2.5400391-0.2705078,4.0302734,0c0.1020508,0.0185547,0.1733398,0.1074219,0.1733398,0.2167969v1.1083984  v7.4208374l-3.8041992-0.9481812c-0.178772-0.0456543-0.3600464-0.0670166-0.5410156-0.0775757v-6.3950806  c0-0.1182861-0.0183105-0.2321167-0.0307617-0.3474731V14.800293C48.7348633,14.690918,48.8061523,14.6020508,48.9072266,14.5834961  z M41.3896484,15.9086914c0-0.109375,0.0712891-0.1982422,0.1733398-0.2167969  c0.7451172-0.1352539,1.4228516-0.2036133,2.0146484-0.2036133c0.5922852,0,1.2700195,0.0683594,2.0146484,0.2036133  c0.0696411,0.0126343,0.114502,0.0639648,0.1425781,0.1262817v9.1886597c0,0.1039429,0.0106201,0.2053833,0.0307617,0.3033447  v1.8797607c0,1.206543-0.9814453,2.1879883-2.1879883,2.1879883s-2.1879883-0.9814453-2.1879883-2.1879883v-0.4995117v-7.7460938  V15.9086914z M34.3916016,18.9443359c0-0.1313477,0.0737305-0.2114258,0.1157227-0.2197266  c0.6850586-0.1313477,1.3364258-0.2006836,1.8833008-0.2006836s1.1982422,0.0693359,1.8847656,0.2011719  c0.0473633,0.0087891,0.1142578,0.0966797,0.1142578,0.2192383v7.7460938c0,1.206543-0.8969727,2.1879883-1.9990234,2.1879883  s-1.9990234-0.9814453-1.9990234-2.1879883V18.9443359z M11.8266602,77.519043  c0-15.1164551,8.8568115-28.6985474,22.6126709-34.8460693c0.5384521,0.805542,1.1436768,1.564209,1.8062744,2.2734985  c0.0092773,0.0118408,0.0151978,0.0252686,0.0249023,0.0369263c0.1761475,0.211731,0.3135986,0.4414062,0.4354858,0.6776733  c-12.9239502,5.3865967-21.2391968,17.788208-21.2391968,31.8579712v8.1000977h-3.6401367V77.519043z"></path></svg>