<svg xmlns="http://www.w3.org/2000/svg" xmlns:xlink="http://www.w3.org/1999/xlink" version="1.1" x="0px" y="0px" viewBox="0 0 64 64" style="enable-background:new 0 0 64 64;" xml:space="preserve"><title>Success-goal-win-winner-reward-award-compete-achivement-leader</title><path d="M1.6,59.1l0.8,1.8L31.1,49l5,0.6l1.8,5.5l-2.4,2.3c-0.9,0.8-1.2,2.1-0.7,3.3l1,2.5l16.6-6.5l-0.9-2.4  c-0.4-1.2-1.5-1.9-2.8-1.9l-3.3,0l-1.8-4.3l4.4-2.2c1.4-0.7,2-2.3,1.5-3.7l-5.7-15.3c-0.6-1.6-2.3-2.3-3.9-1.8c0,0-0.1,0-0.1,0.1  l-4.2,1.8L35,25.5l2.3-2.7c1.6-1.8,2.6-4,2.9-6.4l2.9-3.5c1.9-2.2,1.5-5.5-0.7-7.4c-0.4-0.3-0.8-0.6-1.2-0.8  c-1.1-0.5-2.2-0.6-3.4-0.3l-0.3-0.9c-0.5-1.6-2.3-2.4-3.8-1.8c0,0,0,0,0,0L12.6,9.3c-1.6,0.6-2.4,2.3-1.8,3.8c0,0,0,0.1,0,0.1  l0.5,1.3c-2.6,1.2-3.8,4.2-2.9,6.8c0.7,2,2.5,3.4,4.6,3.7l4.7,0.5c1.9,1.4,4.2,2.3,6.5,2.5l3.3,0.3l0.6,1.5c-0.7,0.4-1.2,1.1-1.4,2  l-0.7,3.4L1.6,45.1l0.7,1.9l14-5.6l3.4,10.2L1.6,59.1z M49.5,54.9l0.2,0.6l-12.8,5.1L36.6,60c-0.1-0.4,0-0.8,0.2-1.1l3.4-3.2l0,0  l4.3-1.4l4,0C49,54.3,49.3,54.5,49.5,54.9z M43.2,52.5l-3.6,1.2l-1.3-3.8c0.6,0.1,1.1,0,1.6-0.3l1.7-0.8L43.2,52.5z M40.5,26.7  c0.5-0.2,1.1,0,1.3,0.5c0,0,0,0,0,0l0.8,2.1l-4.9,1.6l0.6,1.9l4.9-1.6l1.2,3.2l-4.7,1.6l0.6,1.9l4.8-1.6l1.2,3.2l-4.6,1.5l0.6,1.9  l4.7-1.6l0.5,1.3c0.2,0.5,0,1-0.5,1.2l-7.9,3.9c-0.2,0.1-0.4,0.1-0.6,0.1l-6.8-0.8L28,35.9l0.7-3.7c0.1-0.3,0.3-0.6,0.6-0.7  L40.5,26.7z M40.4,6.5c1.6,0.7,2.4,2.6,1.7,4.3c-0.1,0.3-0.3,0.5-0.5,0.8l-1.2,1.5c-0.1-1-0.3-1.9-0.6-2.9l-1.3-3.9  C39.2,6.2,39.8,6.3,40.4,6.5z M10.4,20.8c-0.6-1.7,0.1-3.5,1.7-4.3l1.4,3.4c0.5,1.2,1.2,2.4,2,3.4l-2.1-0.2  C12,23,10.8,22.1,10.4,20.8z M24.6,26.1c-4.1-0.4-7.7-3-9.2-6.9l-2.6-6.6c-0.2-0.5,0-1.1,0.5-1.3c0,0,0,0,0,0l21.1-7.6  c0.3-0.1,0.5-0.1,0.8,0c0.2,0.1,0.4,0.3,0.5,0.6l2.2,6.6c1.2,3.7,0.4,7.7-2.1,10.6l-3.1,3.6l0.9,2.4L30,29l-1-2.5L24.6,26.1z   M18.2,40.6l2.3-0.9l2.5,7.6l1.9-0.6l-2.6-7.8l4-1.6l3.4,10.1l-8.1,3.4L18.2,40.6z"></path><path d="M51,19v1h2v-1c0-2.8,2.2-5,5-5v-2c-2.8,0-5-2.2-5-5V6h-2v1c0,2.8-2.2,5-5,5v2C48.8,14,51,16.2,51,19z M52,10.6  c0.6,1,1.4,1.8,2.4,2.4c-1,0.6-1.8,1.4-2.4,2.4c-0.6-1-1.4-1.8-2.4-2.4C50.6,12.4,51.4,11.6,52,10.6z"></path><path d="M7,39v1h2v-1c0-2.8,2.2-5,5-5v-2c-2.8,0-5-2.2-5-5v-1H7v1c0,2.8-2.2,5-5,5v2C4.8,34,7,36.2,7,39z M8,30.6  c0.6,1,1.4,1.8,2.4,2.4c-1,0.6-1.8,1.4-2.4,2.4c-0.6-1-1.4-1.8-2.4-2.4C6.6,32.4,7.4,31.6,8,30.6z"></path><path d="M57,27v-1h-2v1c0,2.8-2.2,5-5,5v2c2.8,0,5,2.2,5,5v1h2v-1c0-2.8,2.2-5,5-5v-2C59.2,32,57,29.8,57,27z M56,35.4  c-0.6-1-1.4-1.8-2.4-2.4c1-0.6,1.8-1.4,2.4-2.4c0.6,1,1.4,1.8,2.4,2.4C57.4,33.6,56.6,34.4,56,35.4z"></path><path d="M31.3,19.3l1.4,1.4c5.5-5.5,0.4-13.9,0.1-14.2l-1.7,1.1C31.2,7.6,35.7,14.9,31.3,19.3z"></path></svg>
